<svg xmlns="http://www.w3.org/2000/svg" id="Capa_1" data-name="Capa 1" viewBox="0 0 512 512"><defs><style>      .cls-1 {        fill: #fff;        stroke-width: 0px;      }    </style></defs><path class="cls-1" d="M477,370.3c-62-14.9-108.2-70.3-108.2-136.6v-17.2c0-9.3-1.4-18.2-3.4-26.8h-27.7c-2.3,0-4.7.6-7,.8,12.9,21.3,20.7,45.8,20.7,72.5v8.1c0,63.9,51.8,115.9,115.7,116.5,3.6-5.6,6.9-11.3,10-17.2Z"></path><path class="cls-1" d="M393,216.6v17.2c0,56.5,40.5,103.7,94.2,114.4,11.4-28.4,17.7-59.3,17.7-91.7s-3.4-45.5-9.3-66.7h-105.2c1.7,8.7,2.6,17.7,2.6,26.9Z"></path><path class="cls-1" d="M383,165.6h104.5c-2.6-6.7-5.6-13-8.7-19.4h-105.4c3.7,6.2,7,12.6,9.7,19.4Z"></path><path class="cls-1" d="M142.9,216.6v17.2c0,66.3-46.4,121.7-108.2,136.6,3,5.9,6.4,11.5,9.8,17.1,63.8-.9,115.4-52.8,115.4-116.5v-8.1c0-26.5,7.8-51.2,20.7-72.5-2.3,0-4.5-.8-7-.8h-27.4c-2,8.7-3.4,17.5-3.4,26.8l.2.2Z"></path><path class="cls-1" d="M181.1,99.9H62.7c-5.8,7.1-11.1,14.6-16,22.2h109.3c7.6-8.2,15.7-16,25.1-22.2Z"></path><path class="cls-1" d="M79.4,423c64.6,0,117.1-52.3,117.1-116.7s15.4-72.8,40.3-98.1c-9.2-5.9-19.5-10.2-30-13.3-13.9,19.2-22.3,42.5-22.3,68v8.1c0,71.7-54.2,130.4-123.9,139,3.6,4.5,7.5,8.8,11.4,13.2h7.6l-.2-.2Z"></path><path class="cls-1" d="M440.1,423c3.9-4.3,7.6-8.7,11.2-13.2-69.7-8.5-124.2-67.2-124.2-139v-8.1c0-25.4-8.4-48.7-22.3-68-10.7,3.1-20.9,7.5-30,13.3,24.9,25.4,40.3,59.9,40.3,98.1,0,64.2,52.5,116.7,117.1,116.7h8.1l-.2.2Z"></path><path class="cls-1" d="M224.5,175.3c11.2,4.3,21.6,9.9,31.1,16.8,9.5-6.8,19.9-12.4,31.1-16.8-9.3-8.1-19.6-15.2-31.1-20-11.5,4.8-21.8,11.9-31.1,20Z"></path><path class="cls-1" d="M416.9,445.5c-70.7-7.6-126.1-66.7-126.1-139.2s-13.5-61.9-35.2-83.2c-21.6,21.1-35,50.6-35,83.2,0,72.3-55.3,131.4-125.8,139.2,43.4,36.8,99.6,59.1,161.1,59.1s117.5-22.4,161-59.1Z"></path><path class="cls-1" d="M118.8,233.7v-17.2c0-9.2,1.1-18.2,2.8-26.9H16.2c-5.9,21.3-9.3,43.6-9.3,66.7s6.4,63.3,17.7,91.7c53.6-10.7,94.2-57.9,94.2-114.4Z"></path><path class="cls-1" d="M255.8,76.2c1.4,0,2.6-.5,4-.5h166.3C381.7,34,322,8.2,255.9,8.2s-125.9,25.8-170.5,67.7h166.3c1.4,0,2.6.3,4,.5v-.2Z"></path><path class="cls-1" d="M138.4,146.2H33c-3.1,6.4-6.1,12.9-8.7,19.4h104.3c2.6-6.8,6.1-13.2,9.8-19.4Z"></path><path class="cls-1" d="M355.7,122.1h109.3c-5-7.6-10.3-15.2-16-22.2h-118.3c9.3,6.2,17.4,14,25.1,22.2Z"></path><path class="cls-1" d="M290.4,147.3c8.7,6,16.3,13,23.4,20.8,7.8-1.4,15.6-2.3,23.8-2.3h19c-3.4-7-7.5-13.3-12.1-19.4h-43.3c-3.7,0-7.2.8-10.7,1.1v-.2Z"></path><path class="cls-1" d="M191.8,122.1h18.4c16,0,31.1,3.3,45.5,8.2,14.3-5,29.6-8.2,45.5-8.2h18.7c-18.2-13-40.2-20.9-64-21.7-23.8.8-45.8,8.7-64,21.7Z"></path><path class="cls-1" d="M155.2,165.6h18.5c8.1,0,16,1.1,23.8,2.3,7.2-7.8,14.8-14.7,23.4-20.8-3.6-.3-7.2-1.1-10.7-1.1h-42.8c-4.7,6.1-8.7,12.6-12.1,19.4v.2Z"></path></svg>